<?xml version="1.0" encoding="utf-8"?>
<!-- Generator: Adobe Illustrator 19.1.0, SVG Export Plug-In . SVG Version: 6.00 Build 0)  -->
<svg version="1.1" id="Layer_1" xmlns="http://www.w3.org/2000/svg" xmlns:xlink="http://www.w3.org/1999/xlink" x="0px" y="0px"
	 viewBox="-439 255.6 80.9 51.4" style="enable-background:new -439 255.6 80.9 51.4;" xml:space="preserve">
<style type="text/css">
	.st0{fill:#231F20;}
</style>
<g>
	<path class="st0" d="M-382.6,269.9v23h-4v-10.4h-10.3v10.4h-4v-23h4v9.1h10.3v-9.1H-382.6z M-404.9,292.9h-4v-23h4V292.9z
		 M-412.7,292.9h-4.2l-10.3-16.9h-0.1v16.9h-3.8v-23h4.2l10.4,16.9h0.1v-16.9h3.8v23H-412.7z M-368.6,281.3l-14-25.7h-51.7
		c-2.6,0-4.7,2.1-4.7,4.7v41.9c0,2.6,2.1,4.7,4.7,4.7h51.6L-368.6,281.3z"/>
	<path class="st0" d="M-379.2,307l14.1-25.7l-14-25.7h3.5c1.9,0,4.3,1.4,5.2,3.1l12.3,22.6l-12.4,22.6c-0.9,1.7-3.3,3.1-5.2,3.1
		L-379.2,307L-379.2,307z"/>
</g>
</svg>
