<?xml version="1.0" encoding="utf-8"?>
<!-- Generator: Adobe Illustrator 19.1.0, SVG Export Plug-In . SVG Version: 6.00 Build 0)  -->
<svg version="1.1" id="usagov" xmlns="http://www.w3.org/2000/svg" xmlns:xlink="http://www.w3.org/1999/xlink" x="0px" y="0px"
	 viewBox="-428.2 267.8 78.4 24.7" style="enable-background:new -428.2 267.8 78.4 24.7;" xml:space="preserve">
<g>
	<g id="star">
		<polygon points="-403.2,270.1 -400.7,270 -403.5,271.7 -404,274.2 -405.2,272.7 -408,274.2 -406,271.8 -407.2,270.3 -404.8,270.2 
			-402.9,267.8 		"/>
		<path d="M-408.2,271c-10.1,1.3-17.5,4.7-20.1,7.7c2.6-2.4,11.2-5.3,20.8-6.8"/>
	</g>
	<g id="gov">
		<path d="M-372.7,284.2c0,1.6,0.2,2.4,0.8,3.1c0.4,0.4,0.9,0.6,1.5,0.6c1.5,0,2.4-1.2,2.4-3.2c0-2.3-1-3.8-2.5-3.8
			C-372,280.9-372.7,282.1-372.7,284.2 M-368,287c-0.7,1.3-1.5,2.1-2.9,2.1c-2,0-3.4-1.9-3.4-4.7c0-2.9,1.4-4.8,3.4-4.8
			c1.8,0,2.4,1.3,2.9,2.3v-2.1h1.5v9c0,2.4-1.5,3.7-4,3.7c-2.1,0-3.5-1-3.5-2.3c0-0.2,0-0.5,0.1-0.8l1.3,0.6c-0.1,1,1,1.3,2.1,1.3
			c1.5,0,2.4-0.7,2.4-1.9L-368,287"/>
		<path d="M-363.9,284.5c0,2.1,1,3.4,2.6,3.4c1.5,0,2.5-1.3,2.5-3.5c0-2.4-1.2-3.5-2.7-3.5C-362.9,280.9-363.9,282.2-363.9,284.5
			 M-357,284.3c0,2.9-1.7,4.9-4.3,4.9c-2.4,0-4.1-2-4.1-4.8c0-2.7,1.7-4.7,4.2-4.7C-358.9,279.6-357,281.5-357,284.3"/>
		<polygon points="-357.2,279.9 -355.8,279.9 -353.5,286.7 -351.4,279.9 -349.9,279.9 -352.7,288.9 -354.4,288.9 		"/>
		<path d="M-377.2,289.1c-0.8,0-1.5-0.7-1.5-1.5c0-0.9,0.7-1.5,1.5-1.5s1.5,0.7,1.5,1.5S-376.4,289.1-377.2,289.1"/>
	</g>
	<g id="usa">
		<path d="M-404,275.6c-0.3,0-0.6,0-0.8,0.1c-0.6,0.4-0.5,1.6-0.5,2.1v5.4c0,1.6-0.1,3.5-1.4,4.7c-1.2,1.1-2.6,1.4-4.2,1.4
			c-1,0-1.8-0.1-2.8-0.4c-2.6-0.9-3.3-2.4-3.3-4.9v-8.4h-1.7v-0.4h6.6v0.4h-1.7v8c0,1.2-0.1,2.6,0.7,3.6c0.7,1,1.8,1.3,3,1.3
			c1.5,0,3-0.6,3.7-1.8c0.6-1.1,0.5-2.4,0.5-3.5v-5.4c0-1.3-0.1-2.1-1.6-2.1h-0.4v-0.4h4L-404,275.6L-404,275.6L-404,275.6z"/>
		<path d="M-388,279.2l-1.8,4.9h3.6L-388,279.2z M-386.2,288.9v-0.4h1.6l-1.5-4h-3.9l-0.8,2.3c-0.1,0.4-0.2,0.7-0.2,1
			c0,0.7,1,0.6,1.5,0.6v0.4h-4v-0.4h0.5c1,0,1.4-0.7,1.7-1.5l4.5-12.2h0.3l5.4,13.8h1.3v0.4L-386.2,288.9L-386.2,288.9L-386.2,288.9
			L-386.2,288.9L-386.2,288.9z"/>
		<path d="M-398,289.2c-1.3,0-2.2-0.4-3.4-0.7c-0.1-0.1-0.2-0.1-0.4-0.1c-0.2-0.1-0.7-0.4-0.9-0.4c-0.5,0-0.4,0.5-0.7,0.7v0.1h-0.4
			l-0.1-5.2h0.4c0.4,1.4,0.8,2.4,1.8,3.5c1,1,2.1,1.7,3.6,1.7c1.6,0,3.1-1,3.1-2.6c0-1.8-1.5-2.3-3.2-2.6l-1.3-0.3
			c-1.1-0.2-2.2-0.4-3.1-1.2c-0.4-0.3-0.6-0.6-0.8-1c-0.4-0.7-0.5-1.4-0.5-2.1c0-2.6,2.1-4.1,4.6-4.1c1.2,0,2.1,0.4,3.2,0.8
			c0.3,0.1,0.7,0.3,1,0.3c0.5,0,0.5-0.4,0.5-0.8h0.4v4.4h-0.4c-0.4-2.2-2-4.3-4.6-4.3c-1.5,0-3,0.9-3,2.4c0,1.6,1.7,2,3.1,2.3
			c0.7,0.1,1.5,0.2,2.2,0.4c2.4,0.5,3.7,2,3.7,4.3C-393,287.3-395.2,289.2-398,289.2"/>
	</g>
</g>
</svg>
